<mxfile host="app.diagrams.net" agent="Mozilla/5.0 (Windows NT 10.0; Win64; x64) AppleWebKit/537.36 (KHTML, like Gecko) Chrome/140.0.0.0 Safari/537.36" version="28.2.5">
  <diagram name="Trang-1" id="UtJYKD-fJw2efSgGRC-Y">
    <mxGraphModel dx="872" dy="473" grid="1" gridSize="10" guides="1" tooltips="1" connect="1" arrows="1" fold="1" page="1" pageScale="1" pageWidth="827" pageHeight="1169" math="0" shadow="0">
      <root>
        <mxCell id="0" />
        <mxCell id="1" parent="0" />
        <mxCell id="ZfAlymu3cp6wwWC24rbf-8" style="edgeStyle=orthogonalEdgeStyle;rounded=0;orthogonalLoop=1;jettySize=auto;html=1;exitX=0.5;exitY=1;exitDx=0;exitDy=0;entryX=0.5;entryY=0;entryDx=0;entryDy=0;" edge="1" parent="1" source="ZfAlymu3cp6wwWC24rbf-1" target="ZfAlymu3cp6wwWC24rbf-2">
          <mxGeometry relative="1" as="geometry" />
        </mxCell>
        <mxCell id="ZfAlymu3cp6wwWC24rbf-1" value="Start" style="ellipse;whiteSpace=wrap;html=1;" vertex="1" parent="1">
          <mxGeometry x="300" y="40" width="120" height="80" as="geometry" />
        </mxCell>
        <mxCell id="ZfAlymu3cp6wwWC24rbf-9" style="edgeStyle=orthogonalEdgeStyle;rounded=0;orthogonalLoop=1;jettySize=auto;html=1;exitX=0.5;exitY=1;exitDx=0;exitDy=0;entryX=0.5;entryY=0;entryDx=0;entryDy=0;" edge="1" parent="1" source="ZfAlymu3cp6wwWC24rbf-2" target="ZfAlymu3cp6wwWC24rbf-3">
          <mxGeometry relative="1" as="geometry" />
        </mxCell>
        <mxCell id="ZfAlymu3cp6wwWC24rbf-2" value="Nhập n" style="shape=parallelogram;perimeter=parallelogramPerimeter;whiteSpace=wrap;html=1;fixedSize=1;" vertex="1" parent="1">
          <mxGeometry x="300" y="160" width="120" height="60" as="geometry" />
        </mxCell>
        <mxCell id="ZfAlymu3cp6wwWC24rbf-11" style="edgeStyle=orthogonalEdgeStyle;rounded=0;orthogonalLoop=1;jettySize=auto;html=1;exitX=0.5;exitY=1;exitDx=0;exitDy=0;entryX=0.5;entryY=0;entryDx=0;entryDy=0;" edge="1" parent="1" source="ZfAlymu3cp6wwWC24rbf-3" target="ZfAlymu3cp6wwWC24rbf-5">
          <mxGeometry relative="1" as="geometry" />
        </mxCell>
        <mxCell id="ZfAlymu3cp6wwWC24rbf-3" value="n % 2 = 0?" style="rhombus;whiteSpace=wrap;html=1;" vertex="1" parent="1">
          <mxGeometry x="320" y="260" width="80" height="80" as="geometry" />
        </mxCell>
        <mxCell id="ZfAlymu3cp6wwWC24rbf-13" style="edgeStyle=orthogonalEdgeStyle;rounded=0;orthogonalLoop=1;jettySize=auto;html=1;exitX=0.5;exitY=1;exitDx=0;exitDy=0;" edge="1" parent="1" source="ZfAlymu3cp6wwWC24rbf-4" target="ZfAlymu3cp6wwWC24rbf-12">
          <mxGeometry relative="1" as="geometry" />
        </mxCell>
        <mxCell id="ZfAlymu3cp6wwWC24rbf-4" value="Chẵn" style="shape=parallelogram;perimeter=parallelogramPerimeter;whiteSpace=wrap;html=1;fixedSize=1;" vertex="1" parent="1">
          <mxGeometry x="180" y="380" width="120" height="60" as="geometry" />
        </mxCell>
        <mxCell id="ZfAlymu3cp6wwWC24rbf-14" style="edgeStyle=orthogonalEdgeStyle;rounded=0;orthogonalLoop=1;jettySize=auto;html=1;exitX=0.5;exitY=1;exitDx=0;exitDy=0;" edge="1" parent="1" source="ZfAlymu3cp6wwWC24rbf-5" target="ZfAlymu3cp6wwWC24rbf-12">
          <mxGeometry relative="1" as="geometry" />
        </mxCell>
        <mxCell id="ZfAlymu3cp6wwWC24rbf-5" value="Lẻ" style="shape=parallelogram;perimeter=parallelogramPerimeter;whiteSpace=wrap;html=1;fixedSize=1;" vertex="1" parent="1">
          <mxGeometry x="420" y="380" width="120" height="60" as="geometry" />
        </mxCell>
        <mxCell id="ZfAlymu3cp6wwWC24rbf-10" style="edgeStyle=orthogonalEdgeStyle;rounded=0;orthogonalLoop=1;jettySize=auto;html=1;exitX=0.5;exitY=1;exitDx=0;exitDy=0;entryX=0.558;entryY=0.05;entryDx=0;entryDy=0;entryPerimeter=0;" edge="1" parent="1" source="ZfAlymu3cp6wwWC24rbf-3" target="ZfAlymu3cp6wwWC24rbf-4">
          <mxGeometry relative="1" as="geometry" />
        </mxCell>
        <mxCell id="ZfAlymu3cp6wwWC24rbf-12" value="End" style="ellipse;whiteSpace=wrap;html=1;" vertex="1" parent="1">
          <mxGeometry x="300" y="505" width="120" height="80" as="geometry" />
        </mxCell>
        <mxCell id="ZfAlymu3cp6wwWC24rbf-15" value="False" style="text;html=1;align=center;verticalAlign=middle;whiteSpace=wrap;rounded=0;" vertex="1" parent="1">
          <mxGeometry x="380" y="330" width="60" height="30" as="geometry" />
        </mxCell>
        <mxCell id="ZfAlymu3cp6wwWC24rbf-17" value="True" style="text;html=1;align=center;verticalAlign=middle;whiteSpace=wrap;rounded=0;" vertex="1" parent="1">
          <mxGeometry x="260" y="330" width="60" height="30" as="geometry" />
        </mxCell>
      </root>
    </mxGraphModel>
  </diagram>
</mxfile>
